<?xml version="1.0" encoding="UTF-8" standalone="no"?><svg xmlns="http://www.w3.org/2000/svg" xmlns:xlink="http://www.w3.org/1999/xlink" clip-rule="evenodd" stroke-miterlimit="10" viewBox="0 0 1024 768"><desc>SVG generated by Keynote</desc><defs></defs><g transform="matrix(1.00, 0.00, -0.00, -1.00, 0.0, 768.0)"><path d="M 0.0 768.0 L 1024.0 768.0 L 1024.0 0.0 L 0.0 0.0 Z M 0.0 768.0 " fill="#000000"></path><g><clipPath id="clip0x600000ab9ec0"><path d="M 75.0 698.0 L 495.0 698.0 L 495.0 70.0 L 75.0 70.0 Z M 75.0 698.0 "></path></clipPath><g clip-path="url(#clip0x600000ab9ec0)"><image xlink:href="D3FD6D9778874F66F1E1A714846D8991.jpeg" width="393.00" height="700.00" transform="matrix(1.07, 0.00, -0.00, -1.07, 75.0, 758.0)"></image></g></g><g><clipPath id="clip0x6000008beba0"><path d="M 529.0 367.0 L 949.0 367.0 L 949.0 70.0 L 529.0 70.0 Z M 529.0 367.0 "></path></clipPath><g clip-path="url(#clip0x6000008beba0)"><image xlink:href="3FF97A6C3B88C7E90883E5944AC839C1.jpeg" width="1280.00" height="719.00" transform="matrix(0.41, 0.00, -0.00, -0.41, 474.6, 367.0)"></image></g></g><g><clipPath id="clip0x608000caba60"><path d="M 529.0 698.0 L 949.0 698.0 L 949.0 401.0 L 529.0 401.0 Z M 529.5 698.0 "></path></clipPath><g clip-path="url(#clip0x608000caba60)"><image xlink:href="A7360FF907A1A5F5051DC01E24EF7573.jpeg" width="1280.00" height="960.00" transform="matrix(0.33, 0.00, -0.00, -0.33, 529.5, 707.0)"></image></g></g></g></svg>